<svg width="30" height="30" viewBox="0 0 64 64" fill="none" xmlns="http://www.w3.org/2000/svg">
<path d="M60.68 45.48C60.4589 44.9218 60.127 44.4142 59.7041 43.9879C59.2813 43.5617 58.7764 43.2256 58.22 43C57.6822 42.7723 57.1041 42.6549 56.52 42.6549C55.9359 42.6549 55.3578 42.7723 54.82 43L42.09 47.51C42.1336 47.2556 42.157 46.9981 42.16 46.74C42.16 45.6049 41.7091 44.5162 40.9064 43.7136C40.1038 42.9109 39.0151 42.46 37.88 42.46H34.58C31.6453 42.4574 28.7553 41.7401 26.16 40.37C23.2789 38.8464 20.0691 38.05 16.81 38.05H11.81V34.5C11.81 34.2348 11.7046 33.9804 11.5171 33.7929C11.3296 33.6054 11.0752 33.5 10.81 33.5H4C3.73478 33.5 3.48043 33.6054 3.29289 33.7929C3.10536 33.9804 3 34.2348 3 34.5V59C3 59.2652 3.10536 59.5196 3.29289 59.7071C3.48043 59.8946 3.73478 60 4 60H10.81C11.0752 60 11.3296 59.8946 11.5171 59.7071C11.7046 59.5196 11.81 59.2652 11.81 59V56.75C13.6051 56.8324 15.3795 57.1691 17.08 57.75L22.22 59.57C24.8546 60.4967 27.6272 60.9701 30.42 60.97H31.42C34.4138 60.8345 37.3582 60.1569 40.11 58.97L58.54 51.1C59.5302 50.5955 60.2976 49.741 60.6931 48.7024C61.0886 47.6638 61.0839 46.5153 60.68 45.48V45.48ZM9.81 58H5V35.5H9.81V58ZM57.73 49.32L39.36 57.17C36.8274 58.2604 34.1153 58.874 31.36 58.98C28.4717 59.1003 25.587 58.6693 22.86 57.71L17.74 55.9C15.8299 55.2299 13.8321 54.8425 11.81 54.75V40.05H16.81C19.7423 40.0465 22.6305 40.7643 25.22 42.14C28.1057 43.661 31.318 44.4572 34.58 44.46H37.88C38.1803 44.46 38.4776 44.5193 38.7548 44.6345C39.0321 44.7497 39.2839 44.9186 39.4958 45.1313C39.7076 45.3441 39.8753 45.5966 39.9893 45.8744C40.1033 46.1522 40.1613 46.4497 40.16 46.75C40.1617 47.0755 40.0919 47.3974 39.9554 47.6929C39.8188 47.9885 39.619 48.2503 39.37 48.46L37.69 49.05H26.78C26.5148 49.05 26.2604 49.1554 26.0729 49.3429C25.8854 49.5304 25.78 49.7848 25.78 50.05C25.78 50.3152 25.8854 50.5696 26.0729 50.7571C26.2604 50.9446 26.5148 51.05 26.78 51.05H37.88L55.56 44.89C55.8613 44.7587 56.1864 44.6909 56.515 44.6909C56.8436 44.6909 57.1687 44.7587 57.47 44.89C57.7752 45.0138 58.0521 45.1982 58.2841 45.4319C58.5161 45.6657 58.6984 45.9439 58.82 46.25C59.0445 46.8081 59.0577 47.4289 58.857 47.996C58.6563 48.563 58.2556 49.0374 57.73 49.33V49.32Z" fill="#ffffff" id="id_101"></path>
<path d="M27.62 38.88H53.4C54.2815 38.88 55.127 38.5305 55.7512 37.9082C56.3754 37.2859 56.7274 36.4414 56.73 35.56V30.45C57.3375 30.3401 57.8872 30.0208 58.2837 29.5476C58.6801 29.0744 58.8982 28.4773 58.9 27.86V25.14C58.9002 24.5222 58.6828 23.924 58.286 23.4504C57.8892 22.9768 57.3383 22.658 56.73 22.55V18.47C56.7274 17.5876 56.3757 16.7422 55.7518 16.1182C55.1279 15.4943 54.2824 15.1426 53.4 15.14H52.7L54 13.8C54.1863 13.6126 54.2908 13.3592 54.2908 13.095C54.2908 12.8308 54.1863 12.5773 54 12.39L46.21 4.55999C46.0227 4.37374 45.7692 4.26919 45.505 4.26919C45.2409 4.26919 44.9874 4.37374 44.8 4.55999L43.54 5.81999L38.1 3.10999C37.8646 2.99042 37.5914 2.96885 37.34 3.04999C37.2153 3.09114 37.0998 3.15648 37.0003 3.24227C36.9008 3.32806 36.8191 3.43263 36.76 3.54999L31 15.14H27.62C26.7377 15.1426 25.8922 15.4943 25.2683 16.1182C24.6444 16.7422 24.2927 17.5876 24.29 18.47V35.56C24.2927 36.4414 24.6447 37.2859 25.2689 37.9082C25.8931 38.5305 26.7386 38.88 27.62 38.88V38.88ZM56.9 27.88C56.9 28.0497 56.8326 28.2125 56.7126 28.3325C56.5926 28.4526 56.4298 28.52 56.26 28.52H50.61C50.5543 28.52 50.5009 28.4979 50.4615 28.4585C50.4222 28.4191 50.4 28.3657 50.4 28.31V24.71C50.4 24.6543 50.4222 24.6009 50.4615 24.5615C50.5009 24.5221 50.5543 24.5 50.61 24.5H56.26C56.4298 24.5 56.5926 24.5674 56.7126 24.6874C56.8326 24.8075 56.9 24.9702 56.9 25.14V27.88ZM45.51 6.67999L51.92 13.09L49.87 15.14H37L45.51 6.67999ZM38.1 5.33999L42.05 7.33999L34.21 15.17H33.21L38.1 5.33999ZM26.29 18.47C26.29 18.1172 26.4302 17.779 26.6796 17.5295C26.929 17.2801 27.2673 17.14 27.62 17.14H53.4C53.752 17.1426 54.0887 17.2836 54.3376 17.5324C54.5865 17.7813 54.7274 18.1181 54.73 18.47V22.47H50.61C50.0239 22.47 49.4618 22.7028 49.0473 23.1173C48.6329 23.5317 48.4 24.0939 48.4 24.68V28.26C48.4 28.8461 48.6329 29.4082 49.0473 29.8227C49.4618 30.2371 50.0239 30.47 50.61 30.47H54.73V35.53C54.7274 35.881 54.5861 36.2167 54.337 36.464C54.0878 36.7112 53.7511 36.85 53.4 36.85H27.62C27.4459 36.8513 27.2731 36.8181 27.1118 36.7524C26.9505 36.6866 26.8038 36.5896 26.6802 36.4669C26.5566 36.3442 26.4584 36.1983 26.3915 36.0374C26.3245 35.8766 26.29 35.7042 26.29 35.53V18.47Z" fill="#ffffff" id="id_102"></path>
</svg>